# AST/ASF file generated using VICON BodyLanguage
# -----------------------------------------------
:version 1.10
:name VICON
:units
  mass 1.0
  length 0.45
  angle deg
:documentation
   .ast/.asf automatically generated from VICON data using
   VICON BodyBuilder and BodyLanguage model FoxedUp or BRILLIANT.MOD
:root
   order TX TY TZ RX RY RZ
   axis XYZ
   position 0 0 0  
   orientation 0 0 0 
:bonedata
  begin
     id 1 
     name lhipjoint
     direction 0.722297 -0.617336 0.311742 
     length 2.6635 
     axis 0 0 0  XYZ
  end
  begin
     id 2 
     name lfemur
     direction 0.34202 -0.939693 0  
     length 7.39349  
     axis 0 0 20  XYZ
    dof rx ry rz
    limits (-160.0 20.0)
           (-70.0 70.0)
           (-60.0 70.0)
  end
  begin
     id 3 
     name ltibia
     direction 0.34202 -0.939693 0   
     length 7.36294   
     axis 0 0 20   XYZ
    dof rx
    limits (-10.0 170.0)
  end
  begin
     id 4 
     name lfoot
     direction 0.104879 -0.288152 0.951824   
     length 2.16981   
     axis -90 7.62852e-016 20   XYZ
    dof rx rz
    limits (-45.0 90.0)
           (-70.0 20.0)
  end
  begin
     id 5 
     name ltoes
     direction 1.53586e-011 -4.21895e-011 1   
     length 1.08218   
     axis -90 7.62852e-016 20   XYZ
    dof rx
    limits (-90.0 20.0)
  end
  begin
     id 6 
     name rhipjoint
     direction -0.75102 -0.589393 0.297631   
     length 2.78977  
     axis 0 0 0  XYZ 
  end
  begin
     id 7 
     name rfemur
     direction -0.34202 -0.939693 0   
     length 7.46076   
     axis 0 0 -20   XYZ
    dof rx ry rz
    limits (-160.0 20.0)
           (-70.0 70.0)
           (-70.0 60.0)
  end
  begin
     id 8 
     name rtibia
     direction -0.34202 -0.939693 0   
     length 7.31726   
     axis 0 0 -20   XYZ
    dof rx
    limits (-10.0 170.0)
 end
 begin
     id 9 
     name rfoot
     direction -0.107991 -0.296704 0.948844   
     length 2.09388  
     axis -90 -7.62852e-016 -20   XYZ
    dof rx rz
    limits (-45.0 90.0)
           (-20.0 70.0)
  end
  begin
     id 10 
     name rtoes
     direction -1.53559e-011 -4.21911e-011 1   
     length 1.04433   
     axis -90 -7.62852e-016 -20   XYZ
    dof rx
    limits (-90.0 20.0)
  end
  begin
     id 11 
     name lowerback
     direction 0.0165164 0.98272 0.184358   
     length 1.71896   
     axis 0 0 0   XYZ
    dof rx ry rz
    limits (-20.0 45.0)
           (-30.0 30.0)
           (-30.0 30.0)
  end
  begin
     id 12 
     name upperback
     direction -0.00887249 0.992297 0.123566   
     length 1.71504   
     axis 0 0 0   XYZ
    dof rx ry rz
    limits (-20.0 45.0)
           (-30.0 30.0)
           (-30.0 30.0)
  end
  begin
     id 13 
     name thorax
     direction -0.0157026 0.998908 0.0440032   
     length 1.77022   
     axis 0 0 0   XYZ
    dof rx ry rz
    limits (-20.0 45.0)
           (-30.0 30.0)
           (-30.0 30.0)
  end
  begin
     id 14 
     name lowerneck
     direction -0.0238856 0.998137 0.0561411   
     length 1.89341   
     axis 0 0 0   XYZ
    dof rx ry rz
    limits (-20.0 45.0)
           (-30.0 30.0)
           (-30.0 30.0)
  end
  begin
     id 15 
     name upperneck
     direction 0.0276574 0.952253 -0.304056   
     length 1.86999   
     axis 0 0 0   XYZ
    dof rx ry rz
    limits (-20.0 45.0)
           (-30.0 30.0)
           (-30.0 30.0)
  end
  begin
     id 16
     name head
     direction 0.00800083 0.994258 -0.106712  
     length 1.91492  
     axis 0 0 0   XYZ
    dof rx ry rz
    limits (-20.0 45.0)
           (-30.0 30.0)
           (-30.0 30.0)
  end
  begin
     id 17 
     name lclavicle
     direction 0.97203 0.225407 0.06595  
     length 3.34889  
     axis 0 0 0   XYZ
    dof ry rz
    limits (-20.0 10.0)
           (0.0 20.0)
  end
  begin
     id 18 
     name lhumerus
     direction 1 -4.48973e-011 2.20267e-027   
     length 4.85645   
     axis 180 -30 -90   XYZ
    dof rx ry rz
    limits (-60.0 90.0)
           (-90.0 90.0)
           (-90.0 90.0)
  end
  begin
     id 19
     name lradius
     direction 1 -4.4897e-011 4.60472e-027   
     length 2.79874   
     axis 180 -30 -90   XYZ
    dof rx
    limits (-10.0 170.0)
  end
  begin
     id 20
     name lwrist
     direction 1 -4.48952e-011 1.14928e-026   
     length 1.39937   
     axis -6.29373e-015 90 90   XYZ
    dof ry
    limits (-180.0 0.0)
 end
  begin
     id 21 
     name lhand
     direction 1 -4.48967e-011 2.29886e-026   
     length 0.573398   
     axis -1.46689e-014 90 90   XYZ
    dof rx rz
    limits (-90.0 90.0)
           (-45.0 45.0)
  end
  begin
     id 22 
     name lfingers
     direction 1 -4.48955e-011 4.59726e-026   
     length 0.462289   
     axis -2.93383e-014 90 90   XYZ
    dof rx
    limits (0.0 90.0)
  end
  begin
     id 23
     name lthumb
     direction 0.707107 -6.34866e-011 0.707107   
     length 0.663757   
     axis -90 45 5.69224e-014   XYZ
    dof rx rz
    limits (-45.0 45.0)
           (-45.0 45.0)
  end
  begin
     id 24 
     name rclavicle
     direction -0.981571 0.157346 0.108443   
     length 3.35257  
     axis 0 0 0   XYZ 
    dof ry rz
    limits (-10.0 20.0)
           (-20.0 0.0)
  end
  begin
     id 25 
     name rhumerus
     direction -1 -4.48967e-011 8.58308e-029  
     length 4.67018   
     axis 180 30 90   XYZ
    dof rx ry rz
    limits (-90.0 60.0)
           (-90.0 90.0)
           (-90.0 90.0)
  end
  begin
     id 26 
     name rradius
     direction -1 -4.48958e-011 4.52548e-027   
     length 2.65534   
     axis 180 30 90   XYZ
    dof rx
    limits (-10.0 170.0)
  end
  begin
     id 27 
     name rwrist
     direction -1 -4.48977e-011 1.14952e-026   
     length 1.32767   
     axis -6.29373e-015 -90 -90   XYZ
    dof ry
    limits (-180.0 0.0)
  end
  begin
     id 28
     name rhand
     direction -1 -4.48924e-011 2.29804e-026   
     length 0.594069   
     axis -1.46689e-014 -90 -90   XYZ
    dof rx rz
    limits (-90.0 90.0)
           (-45.0 45.0)
  end
  begin
     id 29
     name rfingers
     direction -1 -4.48998e-011 4.59888e-026   
     length 0.478954   
     axis -2.93383e-014 -90 -90   XYZ
    dof rx
    limits (0.0 90.0)
  end
  begin
     id 30
     name rthumb
     direction -0.707107 -6.34933e-011 0.707107   
     length 0.687685   
     axis -90 -45 -5.69224e-014   XYZ
    dof rx rz
    limits (-45.0 45.0)
           (-45.0 45.0)
  end
:hierarchy
  begin
    root lhipjoint rhipjoint lowerback
    lhipjoint lfemur
    lfemur ltibia
    ltibia lfoot
    lfoot ltoes
    rhipjoint rfemur
    rfemur rtibia
    rtibia rfoot
    rfoot rtoes
    lowerback upperback
    upperback thorax
    thorax lowerneck lclavicle rclavicle
    lowerneck upperneck
    upperneck head
    lclavicle lhumerus
    lhumerus lradius
    lradius lwrist
    lwrist lhand lthumb
    lhand lfingers
    rclavicle rhumerus
    rhumerus rradius
    rradius rwrist
    rwrist rhand rthumb
    rhand rfingers
  end

#!OML:ASF E:\pregnant2\Project 1\Capture day 1\Session 1\pregnant2.ASF
:FULLY-SPECIFIED
:DEGREES
682
root 9.42678 10.6681 18.4799 23.9574 -4.65991 0.0231688
lowerback -44.0991 3.82625 0.234666
upperback -11.9954 4.89489 -3.50221
thorax 7.46207 2.16077 -1.81416
lowerneck -10.4441 -0.723769 -3.46119
upperneck 50.2118 2.33974 -3.95289
head 23.3098 -0.334012 -1.08139
rclavicle 1.90833e-014 3.97569e-015
rhumerus -41.5243 20.1379 -81.191
rradius 71.6229
rwrist 36.7263
rhand 10.4902 -12.2852
rfingers 7.12502
rthumb 35.5911 -38.7011
lclavicle 1.90833e-014 3.97569e-015
lhumerus -34.4191 -20.7639 80.6625
lradius 68.5194
lwrist -29.3016
lhand 16.8099 26.5425
lfingers 7.12502
lthumb 41.5524 51.2807
rfemur -113.888 4.35628 29.7638
rtibia 84.4352
rfoot 8.12984 -4.35581
rtoes 5.0037
lfemur -109.567 -3.77642 -25.8677
ltibia 88.5944
lfoot -1.11005 0.691337
ltoes -7.52558
683
root 9.43022 10.6721 18.4804 24.0271 -4.70034 0.0415146
lowerback -44.1327 3.85401 0.178132
upperback -11.9922 4.9605 -3.56775
thorax 7.48041 2.18991 -1.82642
lowerneck -10.4746 -0.704785 -3.48377
upperneck 50.2028 2.41319 -3.9958
head 23.3189 -0.31608 -1.08569
rclavicle -1.74931e-014 -7.95139e-015
rhumerus -41.5804 19.9888 -81.1561
rradius 71.6602
rwrist 36.7666
rhand 10.4055 -12.2276
rfingers 7.12502
rthumb 35.5109 -38.6628
lclavicle -1.74931e-014 -7.95139e-015
lhumerus -34.3315 -20.8674 80.648
lradius 68.5214
lwrist -29.2944
lhand 16.817 26.5825
lfingers 7.12502
lthumb 41.5592 51.3186
rfemur -114.207 4.43197 29.9266
rtibia 84.2779
rfoot 8.23277 -4.31701
rtoes 5.04937
lfemur -109.604 -3.80217 -25.8321
ltibia 88.5521
lfoot -1.09025 0.734724
ltoes -7.53208
684
root 9.43392 10.6765 18.481 24.1041 -4.74339 0.060754
lowerback -44.1751 3.8858 0.125216
upperback -11.9918 5.02963 -3.63592
thorax 7.49866 2.22044 -1.84162
lowerneck -10.4984 -0.687201 -3.50722
upperneck 50.1984 2.48182 -4.03387
head 23.3294 -0.299556 -1.08825
rclavicle -3.37934e-014 2.3059e-014
rhumerus -41.6432 19.8361 -81.1219
rradius 71.6991
rwrist 36.8138
rhand 10.3261 -12.1675
rfingers 7.12502
rthumb 35.4356 -38.6207
lclavicle -3.37934e-014 2.3059e-014
lhumerus -34.2473 -20.9674 80.6341
lradius 68.522
lwrist -29.2839
lhand 16.8214 26.6173
lfingers 7.12502
lthumb 41.5633 51.352
rfemur -114.534 4.51333 30.1034
rtibia 84.1045
rfoot 8.32059 -4.25941
rtoes 5.04939
lfemur -109.646 -3.82613 -25.8006
ltibia 88.5059
lfoot -1.06982 0.776413
ltoes -7.5355
685
root 9.43777 10.6814 18.4817 24.1908 -4.78746 0.0809878
lowerback -44.2353 3.91859 0.0744202
upperback -11.9913 5.09904 -3.70425
thorax 7.52204 2.25082 -1.85742
lowerneck -10.519 -0.669498 -3.53103
upperneck 50.1998 2.54855 -4.06742
head 23.3441 -0.283357 -1.08886
rclavicle 7.55382e-015 0
rhumerus -41.7085 19.6845 -81.0886
rradius 71.7377
rwrist 36.8663
rhand 10.2416 -12.1025
rfingers 7.12502
rthumb 35.3555 -38.5748
lclavicle 7.55382e-015 0
lhumerus -34.1651 -21.0581 80.6205
lradius 68.5214
lwrist -29.2724
lhand 16.8281 26.6505
lfingers 7.12502
lthumb 41.5695 51.3831
rfemur -114.869 4.60021 30.2921
rtibia 83.9124
rfoot 8.37611 -4.18424
rtoes 4.99848
lfemur -109.694 -3.84931 -25.7728
ltibia 88.4533
lfoot -1.04706 0.815891
ltoes -7.53592
686
root 9.44171 10.6871 18.4821 24.2867 -4.82784 0.103968
lowerback -44.3085 3.94892 0.0222749
upperback -11.9905 5.1663 -3.77381
thorax 7.54922 2.27999 -1.87434
lowerneck -10.5417 -0.650672 -3.54973
upperneck 50.2056 2.61426 -4.09791
head 23.3641 -0.266228 -1.08922
rclavicle -1.86858e-014 1.35174e-014
rhumerus -41.7723 19.5308 -81.0572
rradius 71.7817
rwrist 36.9207
rhand 10.1892 -12.053
rfingers 7.12502
rthumb 35.3058 -38.5371
lclavicle -1.86858e-014 1.35174e-014
lhumerus -34.0811 -21.1397 80.6033
lradius 68.5217
lwrist -29.259
lhand 16.8339 26.6807
lfingers 7.12502
lthumb 41.575 51.4115
rfemur -115.21 4.68812 30.4903
rtibia 83.7032
rfoot 8.39663 -4.09511
rtoes 4.9284
lfemur -109.744 -3.87522 -25.7506
ltibia 88.3918
lfoot -1.02602 0.856157
ltoes -7.54349
687
root 9.44573 10.6935 18.4828 24.3991 -4.86559 0.129829
lowerback -44.4144 3.97379 -0.0327685
upperback -11.986 5.22796 -3.83998
thorax 7.58844 2.30622 -1.88749
lowerneck -10.5622 -0.629559 -3.56538
upperneck 50.214 2.68353 -4.13031
head 23.3861 -0.247445 -1.09065
rclavicle -7.95139e-016 1.19271e-014
rhumerus -41.8303 19.3836 -81.027
rradius 71.8234
rwrist 36.9807
rhand 10.1397 -12.0024
rfingers 7.12502
rthumb 35.2588 -38.4976
lclavicle -7.95139e-016 1.19271e-014
lhumerus -33.9974 -21.2069 80.5843
lradius 68.5218
lwrist -29.2442
lhand 16.847 26.7173
lfingers 7.12502
lthumb 41.5872 51.4442
rfemur -115.564 4.7797 30.6949
rtibia 83.4786
rfoot 8.38108 -3.99485
rtoes 4.84522
lfemur -109.805 -3.90442 -25.733
ltibia 88.3236
lfoot -1.00242 0.890733
ltoes -7.52694
688
root 9.44954 10.6997 18.4841 24.5162 -4.89794 0.156245
lowerback -44.5368 3.98917 -0.0928114
upperback -11.9759 5.27992 -3.89956
thorax 7.63675 2.32791 -1.89454
lowerneck -10.5863 -0.605972 -3.57724
upperneck 50.2232 2.7567 -4.16475
head 23.4107 -0.226791 -1.09327
rclavicle 4.53229e-014 -1.98785e-014
rhumerus -41.8748 19.2436 -80.997
rradius 71.8586
rwrist 37.0486
rhand 10.0871 -11.9432
rfingers 7.12502
rthumb 35.2089 -38.4502
lclavicle 4.53229e-014 -1.98785e-014
lhumerus -33.9086 -21.2586 80.5609
lradius 68.5201
lwrist -29.2277
lhand 16.8624 26.7567
lfingers 7.12502
lthumb 41.6017 51.4788
rfemur -115.925 4.87354 30.91
rtibia 83.2489
rfoot 8.33992 -3.88561
rtoes 4.7491
lfemur -109.871 -3.93667 -25.7179
ltibia 88.258
lfoot -0.978961 0.921569
ltoes -7.50277
689
root 9.45322 10.7054 18.4863 24.6365 -4.92518 0.183197
lowerback -44.6728 3.99626 -0.155976
upperback -11.9609 5.3229 -3.95289
thorax 7.69272 2.34537 -1.89663
lowerneck -10.608 -0.580778 -3.58756
upperneck 50.2299 2.83244 -4.2016
head 23.4323 -0.205165 -1.09688
rclavicle 1.70955e-014 -9.54166e-015
rhumerus -41.9078 19.1107 -80.9666
rradius 71.8882
rwrist 37.1246
rhand 10.0343 -11.8739
rfingers 7.12502
rthumb 35.1589 -38.3927
lclavicle 1.70955e-014 -9.54166e-015
lhumerus -33.8178 -21.2983 80.5337
lradius 68.5182
lwrist -29.2088
lhand 16.8751 26.7967
lfingers 7.12502
lthumb 41.6136 51.5148
rfemur -116.294 4.96952 31.1355
rtibia 83.018
rfoot 8.28462 -3.77554
rtoes 4.66822
lfemur -109.942 -3.97238 -25.7046
ltibia 88.1991
lfoot -0.95154 0.948003
ltoes -7.43803
690
root 9.45674 10.71 18.4892 24.7455 -4.94675 0.209376
lowerback -44.7975 3.99484 -0.221516
upperback -11.9425 5.35621 -3.99925
thorax 7.74806 2.35864 -1.89446
lowerneck -10.6289 -0.554273 -3.59434
upperneck 50.2335 2.91039 -4.24238
head 23.4508 -0.182471 -1.1028
rclavicle -3.77691e-014 -1.59028e-015
rhumerus -41.9283 18.9827 -80.9351
rradius 71.9105
rwrist 37.2091
rhand 9.97538 -11.7968
rfingers 7.12502
rthumb 35.103 -38.3288
lclavicle -3.77691e-014 -1.59028e-015
lhumerus -33.7237 -21.3293 80.5027
lradius 68.5144
lwrist -29.1898
lhand 16.8898 26.8368
lfingers 7.12502
lthumb 41.6275 51.5504
rfemur -116.657 5.06661 31.374
rtibia 82.7907
rfoot 8.2252 -3.66326
rtoes 4.60495
lfemur -110.009 -4.01048 -25.6923
ltibia 88.1523
lfoot -0.926922 0.972697
ltoes -7.35612
691
root 9.46007 10.7137 18.4925 24.8438 -4.96517 0.23357
lowerback -44.9067 3.98874 -0.287567
upperback -11.9245 5.38374 -4.04084
thorax 7.79795 2.36951 -1.8899
lowerneck -10.6467 -0.527018 -3.6007
upperneck 50.2366 2.98753 -4.28053
head 23.4672 -0.159659 -1.10739
rclavicle -6.36111e-015 4.45278e-014
rhumerus -41.9416 18.8553 -80.9029
rradius 71.9257
rwrist 37.2994
rhand 9.91265 -11.7113
rfingers 7.12502
rthumb 35.0435 -38.2572
lclavicle -6.36111e-015 4.45278e-014
lhumerus -33.6315 -21.3588 80.4706
lradius 68.5089
lwrist -29.1748
lhand 16.8972 26.8676
lfingers 7.12502
lthumb 41.6343 51.579
rfemur -117.014 5.16804 31.6266
rtibia 82.5631
rfoot 8.17139 -3.55318
rtoes 4.53648
lfemur -110.072 -4.04774 -25.6816
ltibia 88.1154
lfoot -0.908323 0.996427
ltoes -7.28583
692
root 9.46338 10.717 18.4958 24.9322 -4.98317 0.255787
lowerback -44.9995 3.98331 -0.350578
upperback -11.908 5.41073 -4.0812
thorax 7.84185 2.38032 -1.88631
lowerneck -10.6621 -0.500723 -3.60601
upperneck 50.2388 3.06157 -4.31739
head 23.4817 -0.137602 -1.11203
rclavicle 2.78299e-015 -1.51076e-014
rhumerus -41.9489 18.722 -80.8681
rradius 71.9342
rwrist 37.3929
rhand 9.84553 -11.6187
rfingers 7.12502
rthumb 34.9798 -38.1795
lclavicle 2.78299e-015 -1.51076e-014
lhumerus -33.5401 -21.3942 80.4389
lradius 68.5007
lwrist -29.1669
lhand 16.8951 26.8923
lfingers 7.12502
lthumb 41.6324 51.6043
rfemur -117.36 5.27482 31.8934
rtibia 82.3318
rfoot 8.12558 -3.44602
rtoes 4.48925
lfemur -110.127 -4.08175 -25.673
ltibia 88.0839
lfoot -0.898079 1.02036
ltoes -7.2314
693
root 9.46676 10.7202 18.4989 25.016 -5.00361 0.27543
lowerback -45.0819 3.98365 -0.406486
upperback -11.894 5.44178 -4.12319
thorax 7.88098 2.393 -1.88667
lowerneck -10.6734 -0.475441 -3.60955
upperneck 50.2409 3.13151 -4.35159
head 23.494 -0.116309 -1.11629
rclavicle 3.10104e-014 -3.10104e-014
rhumerus -41.9533 18.5792 -80.8299
rradius 71.9382
rwrist 37.4871
rhand 9.77924 -11.5252
rfingers 7.12502
rthumb 34.9169 -38.1007
lclavicle 3.10104e-014 -3.10104e-014
lhumerus -33.4513 -21.4428 80.4091
lradius 68.4902
lwrist -29.1699
lhand 16.8853 26.9074
lfingers 7.12502
lthumb 41.6232 51.6225
rfemur -117.698 5.39032 32.1737
rtibia 82.0904
rfoot 8.08458 -3.3378
rtoes 4.43722
lfemur -110.18 -4.11064 -25.6661
ltibia 88.053
lfoot -0.892591 1.04375
ltoes -7.19345
694
root 9.47026 10.7238 18.5018 25.1033 -5.02586 0.293222
lowerback -45.168 3.99083 -0.454629
upperback -11.8812 5.47813 -4.16779
thorax 7.92076 2.40791 -1.89138
lowerneck -10.6888 -0.451061 -3.61362
upperneck 50.2464 3.19917 -4.38237
head 23.5113 -0.0956263 -1.11919
rclavicle -3.93594e-014 3.81667e-014
rhumerus -41.9541 18.426 -80.7872
rradius 71.9391
rwrist 37.5772
rhand 9.71385 -11.4302
rfingers 7.12502
rthumb 34.8549 -38.02
lclavicle -3.93594e-014 3.81667e-014
lhumerus -33.3625 -21.5056 80.3825
lradius 68.4773
lwrist -29.1814
lhand 16.8695 26.9157
lfingers 7.12502
lthumb 41.6084 51.6356
rfemur -118.032 5.51377 32.4639
rtibia 81.8391
rfoot 8.05289 -3.22488
rtoes 4.36269
lfemur -110.233 -4.13603 -25.6612
ltibia 88.019
lfoot -0.89571 1.07081
ltoes -7.20334
695
root 9.47404 10.7281 18.5043 25.198 -5.05135 0.309046
lowerback -45.2647 4.00668 -0.492647
upperback -11.8692 5.52096 -4.21516
thorax 7.96379 2.42544 -1.90104
lowerneck -10.7015 -0.428286 -3.61814
upperneck 50.253 3.26479 -4.41424
head 23.5287 -0.0758891 -1.1231
rclavicle -1.51076e-014 -1.59028e-015
rhumerus -41.9543 18.2617 -80.7396
rradius 71.9408
rwrist 37.6623
rhand 9.64718 -11.3315
rfingers 7.12502
rthumb 34.7916 -37.936
lclavicle -1.51076e-014 -1.59028e-015
lhumerus -33.2755 -21.5802 80.3604
lradius 68.464
lwrist -29.2013
lhand 16.8558 26.9267
lfingers 7.12502
lthumb 41.5955 51.6508
rfemur -118.366 5.64715 32.7641
rtibia 81.5767
rfoot 8.02985 -3.1027
rtoes 4.2856
lfemur -110.291 -4.1577 -25.6567
ltibia 87.9798
lfoot -0.897367 1.09537
ltoes -7.19939
696
root 9.47782 10.7323 18.5068 25.2886 -5.07836 0.322112
lowerback -45.3571 4.02779 -0.524002
upperback -11.8568 5.56731 -4.26227
thorax 8.00672 2.44456 -1.91234
lowerneck -10.7163 -0.407792 -3.61598
upperneck 50.261 3.32963 -4.45622
head 23.5496 -0.0562858 -1.13441
rclavicle 5.1684e-014 3.97569e-015
rhumerus -41.9532 18.0892 -80.6867
rradius 71.945
rwrist 37.7443
rhand 9.58215 -11.2265
rfingers 7.12502
rthumb 34.7299 -37.8452
lclavicle 5.1684e-014 3.97569e-015
lhumerus -33.1883 -21.6657 80.3423
lradius 68.4499
lwrist -29.2215
lhand 16.8396 26.9341
lfingers 7.12502
lthumb 41.5803 51.6632
rfemur -118.694 5.78933 33.0741
rtibia 81.3111
rfoot 8.01894 -2.9678
rtoes 4.18721
lfemur -110.345 -4.17563 -25.6526
ltibia 87.9414
lfoot -0.898759 1.11764
ltoes -7.21359
